<?xml version="1.0" encoding="UTF-8" standalone="no"?>
<!-- Created with Inkscape (http://www.inkscape.org/) -->

<svg
   width="48.344189mm"
   height="48.344189mm"
   viewBox="0 0 48.344189 48.344189"
   version="1.1"
   id="svg1"
   xmlns="http://www.w3.org/2000/svg"
   xmlns:svg="http://www.w3.org/2000/svg">
  <defs
     id="defs1" />
  <g
     id="layer1"
     transform="translate(-55.969541,-137.18594)">
    <path
       id="path1"
       style="fill:#00ff21;fill-opacity:1;stroke-width:2.35006"
       d="m 80.14108,137.18594 c -13.34945,3e-4 -24.171248,10.8221 -24.171536,24.17155 -3.14e-4,13.34988 10.821656,24.17234 24.171536,24.17264 13.35032,3.2e-4 24.17297,-10.82232 24.17266,-24.17264 -2.9e-4,-13.34989 -10.82277,-24.17187 -24.17266,-24.17155 z m 0,7.12208 c 2.27175,0 4.10146,1.8286 4.10146,4.10035 v 8.84877 h 8.84878 c 2.27174,0 4.10035,1.82861 4.10035,4.10035 0,2.27174 -1.82861,4.10035 -4.10035,4.10035 h -8.84878 v 8.84877 c 0,2.27174 -1.82971,4.10035 -4.10146,4.10035 -2.27174,0 -4.10034,-1.82861 -4.10034,-4.10035 v -8.84877 h -8.84877 c -2.27174,0 -4.10035,-1.82861 -4.10035,-4.10035 0,-2.27174 1.82861,-4.10035 4.10035,-4.10035 h 8.84877 v -8.84877 c 0,-2.27175 1.8286,-4.10035 4.10034,-4.10035 z" />
  </g>
</svg>
