<?xml version="1.0" encoding="UTF-8" standalone="no"?>
<!-- Created with Inkscape (http://www.inkscape.org/) -->

<svg
   width="48.34433mm"
   height="24.858433mm"
   viewBox="0 0 48.34433 24.858433"
   version="1.1"
   id="svg1"
   xmlns="http://www.w3.org/2000/svg"
   xmlns:svg="http://www.w3.org/2000/svg">
  <defs
     id="defs1" />
  <g
     id="layer1"
     transform="translate(-107.68644,-148.92889)">
    <path
       id="rect5"
       style="fill:#00d5ff;fill-opacity:1;stroke-width:1.20596"
       d="m 120.11567,148.92889 c -6.88578,0 -12.42922,5.54344 -12.42922,12.42922 0,6.88578 5.54344,12.42922 12.42922,12.42922 h 14.98978 a 15.055531,15.055531 0 0 1 -6.55929,-12.42922 15.055531,15.055531 0 0 1 6.55981,-12.42922 z m 23.4859,0 a 12.429,12.429 0 0 0 -12.42921,12.42922 12.429,12.429 0 0 0 12.42921,12.4287 12.429,12.429 0 0 0 1.58182,-0.11059 c 0.11019,-0.0139 0.21889,-0.0318 0.32814,-0.0486 a 12.429,12.429 0 0 0 1.48105,-0.3147 c 0.015,-0.004 0.0305,-0.007 0.0455,-0.0114 a 12.429,12.429 0 0 0 1.60404,-0.58395 c 0.0121,-0.005 0.024,-0.0111 0.0362,-0.0165 a 12.429,12.429 0 0 0 6.07508,-5.86063 c 0.008,-0.0166 0.0173,-0.0325 0.0253,-0.0491 a 12.429,12.429 0 0 0 0.64182,-1.58647 c 1.6e-4,-5.1e-4 3.5e-4,-0.001 5.1e-4,-0.002 a 12.429,12.429 0 0 0 0.002,-0.006 12.429,12.429 0 0 0 0.37621,-1.50534 c 0.0198,-0.10457 0.0402,-0.20869 0.0574,-0.31419 a 12.429,12.429 0 0 0 0.16691,-1.58026 12.429,12.429 0 0 0 0.008,-0.43977 12.429,12.429 0 0 0 -0.008,-0.45372 12.429,12.429 0 0 0 -0.16847,-1.58026 c -0.0171,-0.10429 -0.0377,-0.2072 -0.0574,-0.31058 a 12.429,12.429 0 0 0 -0.37724,-1.50482 c -7.7e-4,-0.002 -0.001,-0.005 -0.002,-0.007 a 12.429,12.429 0 0 0 -0.001,-0.002 12.429,12.429 0 0 0 -0.63975,-1.57923 c -0.01,-0.0206 -0.0214,-0.0404 -0.0315,-0.061 a 12.429,12.429 0 0 0 -1.9141,-2.82618 12.429,12.429 0 0 0 -4.14755,-3.01532 c -0.017,-0.008 -0.0336,-0.0157 -0.0506,-0.0233 a 12.429,12.429 0 0 0 -1.59319,-0.57929 c -0.0204,-0.006 -0.0416,-0.01 -0.062,-0.0155 a 12.429,12.429 0 0 0 -1.46606,-0.3111 c -0.10975,-0.0168 -0.21899,-0.0351 -0.32969,-0.0491 a 12.429,12.429 0 0 0 -1.58027,-0.11059 z" />
  </g>
</svg>
